# xmcd
#
# Track frame offsets: 
#        150
#        13458
#        26880
#        39593
#        48908
#        61335
#        74385
#        86225
#        99028
#        112403
#        123768
#        133800
#        143993
#        158130
#        170273
#        182740
#        199160
#        209960
#        223023
#        234220
#        247323
#
# Disc length: 3472 seconds
#
# Revision: 4
# Processed by: cddbd v1.4PL0 Copyright (c) Steve Scherf et al.
# Submitted via: ExactAudioCopy v0.90b3
#
DISCID=450d8e15
DTITLE=Tammy Wynette - Tears Of Fire - The 25th Anniversary Collection
DTITLE=Various Artist - Disc 1 of 3
DYEAR=1992
DGENRE=Country
TTITLE0=You Can Steal Me
TTITLE1=Apartment #9
TTITLE2=She Didn't Color Daddy
TTITLE3=Your Good Girl's Gonna Go Bad
TTITLE4=Walk Through This World With Me
TTITLE5=Tammy Wynette and David Houston - My Elusive Dreams
TTITLE6=I Don't Wanna Play House
TTITLE7=Take Me To Your World
TTITLE8=D-I-V-O-R-C-E
TTITLE9=Sweet Dreams
TTITLE10=Lonely Street
TTITLE11=I Believe
TTITLE12=He
TTITLE13=Stand By Your Man
TTITLE14=You'll Never Walk Alone
TTITLE15=How Great Thou Art
TTITLE16=Singing My Song
TTITLE17=Too Far Gone
TTITLE18=The Ways To Love A Man
TTITLE19=I'll See Him Through
TTITLE20=Kid's (Say The Darndest Things)
EXTD=
EXTT0=
EXTT1=
EXTT2=
EXTT3=
EXTT4=
EXTT5=
EXTT6=
EXTT7=
EXTT8=
EXTT9=
EXTT10=
EXTT11=
EXTT12=
EXTT13=
EXTT14=
EXTT15=
EXTT16=
EXTT17=
EXTT18=
EXTT19=
EXTT20=
PLAYORDER=
